<mxfile host="Electron" modified="2021-04-29T13:12:25.971Z" agent="5.0 (Windows NT 10.0; Win64; x64) AppleWebKit/537.36 (KHTML, like Gecko) draw.io/14.1.8 Chrome/87.0.4280.88 Electron/11.1.1 Safari/537.36" etag="nxY5GLLqGvCGN6OWHICF" compressed="false" version="14.1.8" type="device">
  <diagram id="MZwEWWDSDpZ1t-KYH0aT" name="Seite-1">
    <mxGraphModel dx="782" dy="497" grid="1" gridSize="10" guides="1" tooltips="1" connect="1" arrows="1" fold="1" page="1" pageScale="1" pageWidth="827" pageHeight="1169" math="0" shadow="0">
      <root>
        <mxCell id="0" />
        <mxCell id="1" parent="0" />
        <mxCell id="28jEiZS4QX_T5G6owo9G-1" value="COSO" style="ellipse;whiteSpace=wrap;html=1;fillColor=#ffe6cc;strokeColor=#d79b00;" vertex="1" parent="1">
          <mxGeometry x="160" y="100" width="370" height="60" as="geometry" />
        </mxCell>
        <mxCell id="28jEiZS4QX_T5G6owo9G-2" value="COBIT" style="ellipse;whiteSpace=wrap;html=1;fillColor=#dae8fc;strokeColor=#6c8ebf;" vertex="1" parent="1">
          <mxGeometry x="210" y="140" width="280" height="80" as="geometry" />
        </mxCell>
        <mxCell id="28jEiZS4QX_T5G6owo9G-4" value="ISO 27002" style="ellipse;whiteSpace=wrap;html=1;fillColor=#d5e8d4;strokeColor=#82b366;" vertex="1" parent="1">
          <mxGeometry x="180" y="170" width="100" height="130" as="geometry" />
        </mxCell>
        <mxCell id="28jEiZS4QX_T5G6owo9G-3" value="ISO 9000" style="ellipse;whiteSpace=wrap;html=1;fillColor=#f8cecc;strokeColor=#b85450;" vertex="1" parent="1">
          <mxGeometry x="414" y="160" width="100" height="180" as="geometry" />
        </mxCell>
        <mxCell id="28jEiZS4QX_T5G6owo9G-5" value="ITIL" style="ellipse;whiteSpace=wrap;html=1;fillColor=#fff2cc;strokeColor=#d6b656;" vertex="1" parent="1">
          <mxGeometry x="250" y="210" width="190" height="130" as="geometry" />
        </mxCell>
        <mxCell id="28jEiZS4QX_T5G6owo9G-7" value="Was?" style="html=1;shadow=0;dashed=0;align=center;verticalAlign=middle;shape=mxgraph.arrows2.arrow;dy=0.6;dx=40;notch=0;rotation=-90;fillColor=#f5f5f5;strokeColor=#666666;fontColor=#333333;" vertex="1" parent="1">
          <mxGeometry x="-20" y="190" width="260" height="70" as="geometry" />
        </mxCell>
        <mxCell id="28jEiZS4QX_T5G6owo9G-8" value="Wie?" style="html=1;shadow=0;dashed=0;align=center;verticalAlign=middle;shape=mxgraph.arrows2.arrow;dy=0.6;dx=40;flipH=1;notch=0;rotation=-90;fillColor=#f5f5f5;strokeColor=#666666;fontColor=#333333;" vertex="1" parent="1">
          <mxGeometry x="440" y="190" width="260" height="70" as="geometry" />
        </mxCell>
        <mxCell id="28jEiZS4QX_T5G6owo9G-9" value="Umfang" style="html=1;shadow=0;dashed=0;align=center;verticalAlign=middle;shape=mxgraph.arrows2.twoWayArrow;dy=0.6;dx=35;fillColor=#f5f5f5;strokeColor=#666666;fontColor=#333333;" vertex="1" parent="1">
          <mxGeometry x="130" y="350" width="410" height="60" as="geometry" />
        </mxCell>
      </root>
    </mxGraphModel>
  </diagram>
</mxfile>
